<svg width="32" height="32" viewBox="0 0 32 32" fill="none" xmlns="http://www.w3.org/2000/svg">
<path d="M1 19.4889V9C1 6.79086 2.79086 5 5 5H23C25.2091 5 27 6.79086 27 9V19.4889C27 21.698 25.2091 23.4889 23 23.4889H13.3139C13.031 23.4889 12.7614 23.6087 12.5718 23.8187L6.95805 30.0353C6.65121 30.3751 6.08696 30.1581 6.08696 29.7002V23.9889C6.08696 23.7127 5.8631 23.4889 5.58696 23.4889H5C2.79086 23.4889 1 21.698 1 19.4889Z" fill="white" stroke="black" stroke-width="2"/>
<circle cx="8.25" cy="14.25" r="1.25" fill="black"/>
<circle cx="14.25" cy="14.25" r="1.25" fill="black"/>
<circle cx="20.25" cy="14.25" r="1.25" fill="black"/>
<circle cx="26" cy="6" r="6" fill="#45D2BC"/>
</svg>
