<svg width="28" height="28" viewBox="0 0 28 28" fill="none" xmlns="http://www.w3.org/2000/svg">
<path d="M1 15.4889V5C1 2.79086 2.79086 1 5 1H23C25.2091 1 27 2.79086 27 5V15.4889C27 17.698 25.2091 19.4889 23 19.4889H13.3139C13.031 19.4889 12.7614 19.6087 12.5718 19.8187L6.95805 26.0353C6.65121 26.3751 6.08696 26.1581 6.08696 25.7002V19.9889C6.08696 19.7127 5.8631 19.4889 5.58696 19.4889H5C2.79086 19.4889 1 17.698 1 15.4889Z" fill="white" stroke="black" stroke-width="2"/>
<circle cx="8.25" cy="10.25" r="1.25" fill="black"/>
<circle cx="14.25" cy="10.25" r="1.25" fill="black"/>
<circle cx="20.25" cy="10.25" r="1.25" fill="black"/>
</svg>
